<svg version="1.1" width="1719" height="387" xmlns="http://www.w3.org/2000/svg">
<rect x="0" y="0" width="1719" height="387" fill="#0060a8" />
<g transform="scale(1.67871, 1.68261)">
<path d="M 479 219 L 1039 245 L 1020 -16 Z" fill="#0080da" fill-opacity="0.501961" />
<path d="M 513 8 L -16 -16 L 5 245 Z" fill="#004279" fill-opacity="0.501961" />
<path d="M 506 245 L 1039 3 L 661 -16 Z" fill="#006dbb" fill-opacity="0.501961" />
<path d="M -16 224 L 337 245 L 490 -16 Z" fill="#005596" fill-opacity="0.501961" />
<path d="M 816 238 L 1039 16 L 1038 231 Z" fill="#007cd3" fill-opacity="0.501961" />
<path d="M 753 223 L 378 245 L 695 -16 Z" fill="#0066b0" fill-opacity="0.501961" />
<path d="M 200 -16 L -4 189 L -11 -1 Z" fill="#00467f" fill-opacity="0.501961" />
<path d="M 329 245 L 241 11 L 598 -16 Z" fill="#005ca0" fill-opacity="0.501961" />
<path d="M 1039 1 L 675 126 L 833 -16 Z" fill="#0070c0" fill-opacity="0.501961" />
<path d="M -16 235 L 327 -16 L 222 245 Z" fill="#005393" fill-opacity="0.501961" />
<path d="M 455 245 L 673 -16 L 620 245 Z" fill="#0065af" fill-opacity="0.501961" />
<path d="M 791 -16 L 544 245 L 839 133 Z" fill="#006ab7" fill-opacity="0.501961" />
<path d="M 102 245 L 142 -16 L -16 219 Z" fill="#004e8c" fill-opacity="0.501961" />
<path d="M 913 -16 L 847 245 L 1039 16 Z" fill="#0073c4" fill-opacity="0.501961" />
<path d="M 338 180 L 377 -5 L 548 -1 Z" fill="#005ba0" fill-opacity="0.501961" />
<path d="M 200 245 L 210 82 L 413 63 Z" fill="#00589a" fill-opacity="0.501961" />
<path d="M 1039 122 L 914 245 L 1039 241 Z" fill="#007cd3" fill-opacity="0.501961" />
<path d="M -16 181 L 300 11 L 137 -10 Z" fill="#004f8c" fill-opacity="0.501961" />
<path d="M 739 245 L 968 -4 L 575 245 Z" fill="#006ebd" fill-opacity="0.501961" />
<path d="M 600 -7 L 395 245 L 757 -16 Z" fill="#0062aa" fill-opacity="0.501961" />
<path d="M -16 1 L 88 -7 L -2 84 Z" fill="#00467f" fill-opacity="0.501961" />
<path d="M 419 103 L 248 245 L 412 245 Z" fill="#005fa5" fill-opacity="0.501961" />
<path d="M 960 182 L 1039 -16 L 764 245 Z" fill="#0074c6" fill-opacity="0.501961" />
<path d="M 38 223 L 320 -16 L 150 236 Z" fill="#005494" fill-opacity="0.501961" />
<path d="M 179 66 L 469 -5 L 280 -16 Z" fill="#005494" fill-opacity="0.501961" />
<path d="M 652 245 L 516 245 L 712 41 Z" fill="#0069b4" fill-opacity="0.501961" />
<path d="M 919 -16 L 790 78 L 921 82 Z" fill="#006ebd" fill-opacity="0.501961" />
<path d="M 678 228 L 751 245 L 881 71 Z" fill="#0070bf" fill-opacity="0.501961" />
<path d="M 679 10 L 449 232 L 555 218 Z" fill="#0065ae" fill-opacity="0.501961" />
<path d="M -12 130 L -3 234 L 213 -16 Z" fill="#004e8b" fill-opacity="0.501961" />
<path d="M 434 4 L 526 7 L 403 142 Z" fill="#005ca1" fill-opacity="0.501961" />
<path d="M 751 154 L 663 137 L 830 -16 Z" fill="#006ab6" fill-opacity="0.501961" />
<path d="M 962 245 L 1039 98 L 903 197 Z" fill="#0078cc" fill-opacity="0.501961" />
<path d="M 1039 66 L 784 205 L 1016 -16 Z" fill="#0072c3" fill-opacity="0.501961" />
<path d="M 136 245 L 360 115 L 242 234 Z" fill="#005a9d" fill-opacity="0.501961" />
<path d="M 303 138 L 375 -16 L 136 226 Z" fill="#005798" fill-opacity="0.501961" />
<path d="M 382 -16 L 479 -16 L 266 151 Z" fill="#00589b" fill-opacity="0.501961" />
<path d="M 550 -16 L 640 -11 L 413 169 Z" fill="#005fa6" fill-opacity="0.501961" />
<path d="M 749 110 L 682 245 L 567 245 Z" fill="#006cb9" fill-opacity="0.501961" />
<path d="M 141 162 L -14 220 L 264 -16 Z" fill="#005190" fill-opacity="0.501961" />
<path d="M 70 245 L 219 161 L 293 19 Z" fill="#005595" fill-opacity="0.501961" />
<path d="M 996 -6 L 880 26 L 881 117 Z" fill="#0070bf" fill-opacity="0.501961" />
<path d="M 905 141 L 800 234 L 881 245 Z" fill="#0074c6" fill-opacity="0.501961" />
<path d="M 494 243 L 584 221 L 660 79 Z" fill="#0067b2" fill-opacity="0.501961" />
<path d="M 542 108 L 633 -3 L 716 -16 Z" fill="#0063ab" fill-opacity="0.501961" />
<path d="M 60 -16 L 170 -15 L 44 112 Z" fill="#004b87" fill-opacity="0.501961" />
<path d="M 10 107 L 114 -16 L -16 63 Z" fill="#004a84" fill-opacity="0.501961" />
<path d="M 855 -4 L 675 145 L 778 -16 Z" fill="#0069b5" fill-opacity="0.501961" />
<path d="M 671 245 L 782 68 L 962 -16 Z" fill="#006dbb" fill-opacity="0.501961" />
<path d="M 371 42 L 412 -9 L 299 -16 Z" fill="#005698" fill-opacity="0.501961" />
</g>
</svg>
